
<svg width="119" height="38" viewBox="0 0 119 38" fill="none" xmlns="http://www.w3.org/2000/svg">
<mask id="mask0_320_18547" style="mask-type:luminance" maskUnits="userSpaceOnUse" x="0" y="0" width="119" height="38">
<path d="M118.75 0H0V38H118.75V0Z" fill="white"/>
</mask>
<g mask="url(#mask0_320_18547)">
<path d="M14.6105 1.94158C15.1464 1.94455 15.5843 1.51111 15.5858 0.975249C15.5858 0.43939 15.1538 0.00298391 14.618 1.51598e-05C14.0806 -0.00295359 13.6427 0.430484 13.6427 0.966343C13.6398 1.5022 14.0732 1.93861 14.6105 1.94158ZM13.8505 2.54869V6.77915C14.094 6.97658 14.3434 7.17251 14.6046 7.3729C14.8644 7.174 15.1152 6.97658 15.3587 6.78064V2.55017H13.8505V2.54869ZM21.0201 4.0583C21.7489 4.06275 22.2833 4.24978 22.451 4.5615C22.5787 4.799 22.5 5.1597 22.2388 5.55158C21.9923 5.92267 21.3407 6.65744 20.738 7.30759H22.7642C23.0715 6.94986 23.3357 6.62181 23.493 6.3858C24.072 5.51447 24.1759 4.58822 23.7795 3.84603C23.5198 3.36064 22.8132 2.54572 20.9993 2.54572H20.2675C20.508 2.79361 20.7039 3.08752 20.8405 3.41705C20.9266 3.62486 20.9859 3.83861 21.0216 4.05533L21.0201 4.0583ZM18.6287 4.33884C18.7208 4.5615 18.6391 4.97712 18.1374 5.48181C17.2483 6.37392 16.3087 7.17548 15.3438 7.92212C15.47 8.01416 17.1741 9.2358 17.9118 9.70634H21.8706C23.1739 9.70634 24.5959 10.2882 25.678 11.259C26.5509 12.0442 27.6092 13.4395 27.6894 15.6201C27.8527 19.9886 26.0031 21.2281 25.114 21.8248C20.7529 24.749 20.4145 27.5367 19.9469 31.396C19.9261 31.5593 19.9068 31.7256 19.886 31.8933C20.2185 31.9542 20.5584 31.9868 20.9013 31.9868C21.0691 31.9868 21.2323 31.9794 21.3971 31.9645C21.4134 31.8339 21.4298 31.7063 21.4446 31.5786C21.8944 27.8632 22.166 25.6203 25.9541 23.0806C27.5543 22.0074 29.3682 20.1845 29.196 15.5652C29.1173 13.4514 28.2252 11.5232 26.6845 10.1368C25.3426 8.92853 23.6311 8.22791 21.973 8.19822H17.4027C18.0157 7.68165 18.6184 7.13541 19.2017 6.54908C20.0745 5.6733 20.3788 4.63126 20.0196 3.76142C19.7153 3.02517 18.9731 2.55017 18.1285 2.55017H16.2434V4.05978H18.1285C18.3645 4.05978 18.556 4.16666 18.6287 4.34033V4.33884ZM17.1948 12.1125C20.5763 14.3628 23.9695 16.6473 25.6899 20.1697C25.8413 19.9901 25.9838 19.7882 26.113 19.5537C26.2807 19.2524 26.4173 18.9095 26.5241 18.5324C24.5529 15.2223 21.3511 13.0744 18.032 10.8582C15.4047 9.10369 13.0045 7.43525 11.0718 5.4833C10.5701 4.97712 10.4884 4.5615 10.5805 4.34033C10.6532 4.16814 10.8432 4.06126 11.0807 4.06126H12.9659V2.55166H11.0807C10.2361 2.55166 9.49391 3.02666 9.18961 3.76291C8.82891 4.63275 9.13469 5.67626 10.0075 6.55056C10.6577 7.20072 12.0827 8.71033 17.1963 12.114L17.1948 12.1125ZM6.44055 7.31056H8.46672C7.86406 6.66041 7.21242 5.92267 6.96602 5.55455C6.70477 5.16119 6.62758 4.799 6.75523 4.56298C6.92148 4.24978 7.45734 4.06275 8.18617 4.05978C8.22031 3.84306 8.28117 3.6308 8.36727 3.4215C8.50383 3.09197 8.69828 2.79955 8.93875 2.55017H8.20547C6.39156 2.55017 5.685 3.36509 5.42523 3.85048C5.02742 4.59416 5.13133 5.51892 5.71024 6.39025C5.86609 6.62626 6.1318 6.95431 6.43906 7.31205H6.44203L6.44055 7.31056ZM26.772 23.5912C26.9175 24.4477 26.9947 25.3724 26.9947 26.3759C26.9947 27.9538 26.5895 29.3194 25.7909 30.4297C25.0754 31.4242 24.072 32.159 22.8889 32.5553C21.6658 32.965 20.3016 32.9828 19.0488 32.6028C17.6951 32.1946 16.5046 31.347 15.6095 30.1551C15.3438 29.8003 15.2785 29.2615 15.4566 28.9038C15.611 28.5935 15.9495 28.4362 16.4601 28.4362H16.4764C16.7792 28.4362 17.7055 28.4436 18.2013 27.7742C18.6896 27.1166 18.4788 26.2512 18.222 25.4229C18.2102 25.3843 18.1968 25.3413 18.1805 25.2923C17.9638 24.6095 17.3878 22.7985 18.173 21.2963C18.6763 20.336 19.6752 19.6205 21.1463 19.1692L20.7054 17.7264C18.8366 18.2994 17.5348 19.2657 16.8401 20.5957C15.7624 22.6545 16.4779 24.9049 16.7466 25.7509C16.7599 25.7955 16.7733 25.8356 16.7837 25.8682C16.9855 26.5199 17.0019 26.7692 16.987 26.8657C16.938 26.8865 16.803 26.9281 16.5076 26.9281H16.463C15.7105 26.9281 15.0662 27.1567 14.6031 27.5767C14.137 27.1537 13.4839 26.9236 12.7209 26.9295C12.4122 26.9325 12.2712 26.8895 12.2207 26.8672C12.2044 26.7722 12.2207 26.5213 12.4241 25.8697C12.4345 25.8356 12.4463 25.7955 12.4612 25.7524C12.7298 24.9063 13.4453 22.6575 12.3677 20.5972C11.6715 19.2657 10.3697 18.3009 8.50234 17.7279L8.06149 19.1707C9.5325 19.622 10.5315 20.3374 11.0347 21.2978C11.2499 21.709 11.8214 22.7985 11.0273 25.2938C11.0109 25.3427 10.9976 25.3858 10.9857 25.4244C10.7289 26.2527 10.5211 27.1181 11.0065 27.7756C11.5038 28.4466 12.427 28.4392 12.7328 28.4377H12.7491C13.2583 28.4377 13.5967 28.595 13.7511 28.9052C13.9307 29.263 13.8654 29.8018 13.5982 30.1566C12.7031 31.3485 11.5127 32.1946 10.1589 32.6043C8.90461 32.9828 7.54195 32.965 6.31883 32.5568C5.1343 32.1605 4.13086 31.4257 3.41688 30.4312C2.6168 29.3194 2.21453 27.9567 2.21453 26.3788C2.21453 18.6749 6.75672 15.6349 12.0173 12.114C12.62 11.7117 13.2271 11.3035 13.8342 10.8864C13.4052 10.5792 12.9762 10.263 12.5517 9.93642C12.093 10.2481 11.6359 10.5554 11.1802 10.8597C5.79188 14.4623 0.704922 17.866 0.704922 26.3759C0.704922 28.2506 1.22 29.9577 2.19227 31.3114C3.09328 32.5642 4.355 33.489 5.84086 33.9863C6.63055 34.252 7.46774 34.3841 8.30789 34.3826C9.07977 34.3826 9.85313 34.2713 10.5938 34.0471C12.1598 33.5751 13.5388 32.6325 14.6046 31.3159C15.6704 32.634 17.0509 33.5751 18.6154 34.0456C20.1651 34.5147 21.8528 34.491 23.3684 33.9833C24.8542 33.4845 26.1159 32.5613 27.017 31.3085C27.9907 29.9547 28.5043 28.2477 28.5043 26.3729C28.5043 24.9123 28.3544 23.6016 28.0798 22.4156C27.6345 22.9173 27.1743 23.2973 26.7735 23.5867V23.5912H26.772ZM17.8361 35.6844C17.0004 36.1876 15.9123 36.4444 14.6031 36.4444C13.2939 36.4444 12.2044 36.1891 11.3702 35.6844C11.048 35.4899 10.7645 35.2569 10.5181 34.9912C9.96742 35.1337 9.40336 35.2213 8.83188 35.2554C9.94516 37.0144 11.9179 37.954 14.6031 37.954C17.2884 37.954 19.2611 37.0144 20.3744 35.2554C19.8029 35.2213 19.2388 35.1337 18.6881 34.9897C18.4417 35.2569 18.1582 35.4884 17.8346 35.6844H17.8361ZM3.85031 21.6615C3.67219 22.1528 3.5282 22.662 3.41391 23.1904C7.04766 25.6842 7.31781 27.9167 7.76164 31.5786C7.77797 31.7063 7.79281 31.8339 7.80914 31.9645C7.97391 31.9794 8.14016 31.9868 8.30641 31.9868C8.6493 31.9868 8.98625 31.9556 9.32024 31.8948C9.30094 31.727 9.27867 31.5593 9.26086 31.396C8.79328 27.5381 8.45633 24.7505 4.09375 21.8248C4.01953 21.7758 3.93938 21.7209 3.8518 21.66L3.85031 21.6615ZM1.73656 18.3944C1.56586 17.6463 1.47531 16.7349 1.51688 15.6216C1.59852 13.441 2.65539 12.0457 3.5282 11.2605C4.61031 10.2882 6.03383 9.70783 7.33563 9.70783H12.2534C11.6448 9.23283 11.0421 8.73111 10.4528 8.19822H7.23172C5.57516 8.22642 3.86367 8.93001 2.52031 10.1368C0.9825 11.5232 0.0903911 13.4514 0.0117193 15.5652C-0.0669526 17.6908 0.274454 19.2256 0.823672 20.3671C1.07898 19.6828 1.3818 19.0282 1.73805 18.3944H1.73656Z" fill="#005555"/>
<path d="M54.2004 31.2535C54.5953 29.5435 55.9698 28.5296 57.4482 28.5296C60.3249 28.5296 60.558 31.2535 60.558 31.2535H54.2019H54.2004ZM57.6293 26.6207C54.4171 26.6207 51.9946 29.0655 51.9946 32.3103C51.9946 35.5552 54.4364 37.9999 57.6753 37.9999C59.3957 37.9999 61.0167 37.3364 62.0557 36.2172L60.6367 34.7002C60.1275 35.2108 59.1597 35.9099 57.6753 35.9099C56.191 35.9099 54.4364 35.0549 54.1648 32.8002H62.8781C62.9063 28.8577 60.7138 26.6237 57.6308 26.6237" fill="#005555"/>
<path d="M95.0622 21.7833C94.2146 21.7833 93.5244 22.4735 93.5244 23.3226C93.5244 24.1716 94.2146 24.8619 95.0622 24.8619C95.9098 24.8619 96.6 24.1716 96.6 23.3226C96.6 22.4735 95.9098 21.7833 95.0622 21.7833Z" fill="#005555"/>
<path d="M66.7436 22.0103H64.6328V37.8159H66.7436V22.0103Z" fill="#005555"/>
<path d="M96.1205 26.8034H94.0098V37.8175H96.1205V26.8034Z" fill="#005555"/>
<path d="M98.0489 26.8034V28.644H104.092L98.0459 37.0679V37.8175H107.127V35.9768H101.065L107.127 27.5322V26.8034H98.0489Z" fill="#005555"/>
<path d="M89.6323 30.3109V34.3098C88.9703 35.3533 87.7101 35.999 86.4038 35.999C84.3747 35.999 82.9022 34.4478 82.9022 32.3088C82.9022 30.1698 84.3747 28.6202 86.4038 28.6202C87.7101 28.6202 88.9584 29.257 89.6323 30.3094V30.3109ZM80.7246 32.3103C80.7246 35.5537 83.156 37.9999 86.3816 37.9999C87.5141 37.9999 88.6541 37.6689 89.6323 36.7827V37.8173H91.7431V26.8033H89.6323V27.8616C89.6323 27.8616 88.4018 26.6222 86.3816 26.6222C83.156 26.6222 80.7246 29.0684 80.7246 32.3118V32.3103Z" fill="#005555"/>
<path d="M90.7012 10.8462V14.8451C90.0392 15.8887 88.7789 16.5344 87.4727 16.5344C85.4435 16.5344 83.9711 14.9817 83.9711 12.8442C83.9711 10.7067 85.4435 9.15554 87.4727 9.15554C88.7789 9.15554 90.0258 9.79233 90.7012 10.8448V10.8462ZM81.792 12.8472C81.792 16.0905 84.2234 18.5368 87.4489 18.5368C88.5815 18.5368 89.7215 18.2058 90.6982 17.3196V18.3542H92.809V2.54858H90.6982V8.39702C90.6982 8.39702 89.4677 7.15757 87.4489 7.15757C84.2234 7.15757 81.792 9.60382 81.792 12.8472Z" fill="#005555"/>
<path d="M74.5406 26.6208C72.2072 26.6208 71.1533 28.1853 71.1533 28.1853V22.0118H69.0425V37.8174H71.1533V30.7948L71.1637 30.7637C71.6312 29.3817 72.6614 28.6217 74.0626 28.6217C75.878 28.6217 76.8577 30.0408 76.8577 31.3752V37.8174H78.9685V31.3307C78.9685 28.4703 77.2303 26.6223 74.5406 26.6223" fill="#005555"/>
<path d="M42.3212 35.7853H39.6404V24.1166H42.3212C45.7887 24.1166 48.3062 26.5703 48.3062 29.9517C48.3062 33.3331 45.7887 35.7853 42.3212 35.7853ZM42.3212 22.0474H37.3931V37.8515H42.3212C47.04 37.8515 50.5981 34.4538 50.5981 29.9487C50.5981 25.4436 47.04 22.0459 42.3212 22.0459V22.0474Z" fill="#005555"/>
<path d="M80.0214 2.54858H77.9106V18.3527H80.0214V2.54858Z" fill="#005555"/>
<path d="M41.4437 12.7269L44.2298 5.7771L46.9922 12.7269H41.4451H41.4437ZM43.3481 2.54858L36.8569 18.3542H39.2542L40.7015 14.7487H47.7344L49.1832 18.3542H51.6027L45.113 2.54858H43.3481Z" fill="#005555"/>
<path d="M58.5689 7.15757C56.1583 7.15757 55.1816 8.7221 55.1816 8.7221V2.54858H53.0708V18.3542H55.1816V11.3316C55.1816 11.3316 55.7204 9.15851 58.091 9.15851C59.9049 9.15851 60.8846 10.5761 60.8846 11.9105V18.3527H62.9953V11.863C62.9953 9.00265 61.2571 7.15608 58.5674 7.15608" fill="#005555"/>
<path d="M70.4486 16.527C68.4061 16.527 66.9247 14.9759 66.9247 12.8384C66.9247 10.7009 68.4061 9.14968 70.4486 9.14968C72.4911 9.14968 73.9725 10.735 73.9725 12.8384C73.9725 14.9417 72.4584 16.527 70.4486 16.527ZM70.4486 7.14874C67.1978 7.14874 64.7456 9.59499 64.7456 12.8384C64.7456 16.0817 67.1978 18.528 70.4486 18.528C73.6994 18.528 76.1515 16.0817 76.1515 12.8384C76.1515 9.59499 73.6994 7.14874 70.4486 7.14874Z" fill="#005555"/>
<path d="M110.074 31.2535C110.47 29.5435 111.843 28.5296 113.322 28.5296C116.198 28.5296 116.432 31.2535 116.432 31.2535H110.075H110.074ZM113.503 26.6207C110.291 26.6207 107.868 29.0655 107.868 32.3103C107.868 35.5552 110.31 37.9999 113.549 37.9999C115.269 37.9999 116.89 37.3364 117.929 36.2172L116.51 34.7002C116.001 35.2108 115.033 35.9099 113.549 35.9099C112.064 35.9099 110.31 35.0549 110.038 32.8002H118.752C118.78 28.8577 116.587 26.6237 113.504 26.6237" fill="#005555"/>
</g>
</svg>
