<?xml version="1.0" encoding="utf-8"?>
<!-- Generator: Adobe Illustrator 25.3.1, SVG Export Plug-In . SVG Version: 6.00 Build 0)  -->
<svg version="1.1" id="Layer_1" xmlns="http://www.w3.org/2000/svg" xmlns:xlink="http://www.w3.org/1999/xlink" x="0px" y="0px"
	 viewBox="0 0 841.89 595.28" style="enable-background:new 0 0 841.89 595.28;" xml:space="preserve">
<style type="text/css">
	.st0{fill:#ED1C24;}
</style>
<path class="st0" d="M67.35,251.86c-15.41,6.71-37.12,20.31-35.41,33.45c1.09,8.42,12.93,12.06,19.63,12.76
	c11.35,1.19,25.15-2.03,35.89-5.97c4.41-1.62,9.19-4.97,12.44-8.45c1.33-1.44,2.44-3.1,3.08-4.96c1.01-2.99-0.27-8.82-4.46-5.78
	c-10.21,7.42-45.53,16.22-42.71,5.03c4.56-18.05,70.8-30.14,95.81-29.22c8.15,0.3,26.41,0.79,29.01,11.46
	c2.6,10.71-11.9,21.12-19.32,25.95c-5.59,3.63-11.48,6.35-17.93,8.23c-4.57,1.34-13.47,2.62-17.35,2.82
	c-3.1,0.16,7.88-12.86,10.01-14.97c4.86-4.83,12.74-13.01,9.91-14.24c-26.82-11.65-74.03,75.9-75.61,79.1
	c-1.61,3.26-0.48,7.29,5.39,7.75c51.49,3.97,111.48-27.73,89.9-60.77c-0.07-0.11-0.16-0.34-0.13-0.56c0.04-0.22,0.2-0.42,0.3-0.48
	c16.02-9.63,26.03-18.62,30.08-25.91C218.07,227.22,105.01,235.47,67.35,251.86 M148.11,318.03c-5.43,10.12-16.27,17.01-26.74,20.96
	c-2.11,0.8-12.98,3.54-20.12,3.33c-1.91-0.06-6.05,0.03-6.13-2.23c-0.08-1.99,1.74-4.45,2.8-6.19c3.6-5.92,7.62-11.6,12-16.97
	c1.02-1.25,2.03-2.52,3.07-3.76c0.86-1.03,1.77-2.25,2.81-3.08c1.23-0.99,2.52-1.94,3.91-2.7c1.57-0.86,3.28-1.52,4.96-2.14
	c4.28-1.57,8.79-2.37,13.28-3.17c1.56-0.28,3.35-0.75,4.95-0.6c1.17,0.11,2.37,0.79,3.28,1.52c1.91,1.53,3.37,3.9,3.78,6.33
	C150.45,312.34,149.53,315.38,148.11,318.03"/>
<path class="st0" d="M600.79,256.7c-2.51,1.88-4.64,4.22-6.05,7.04c-2.6,5.15-2.24,12.31,4.69,13.41c4.14,0.66,8.47-0.57,12-2.73
	c7.22-4.41,10.47-12.32,7.25-17.6c-2.04-3.34-6.27-4.58-10.02-4.01C605.73,253.27,603.17,254.92,600.79,256.7"/>
<path class="st0" d="M709.01,314.87c-5.22,3.78-11.3,7.35-17,10.36c-3.28,1.73-6.52,3.37-9.88,4.88c-2.56,1.15-6.57,3-8.89,0.39
	c-2.26-2.53-0.98-6.89,0.13-9.59c2.9-7.05,8.28-12.4,13.21-18.09c2.5-2.88,11.57-11.4,10.69-15.53c-0.35-1.64-1.45-1.7-3.57-1.85
	c-2.13-0.15-3.92-0.38-6.62-0.13c-1.97,0.18-3.91,0.61-5.03,1.43c-19.59,14.24-49.59,42.04-59.85,37.37
	c-6.32-2.88,21.04-27.56,26.53-36.23c1.18-1.87-0.5-3.03-2.27-3.16c-2.56-0.19-5.17-0.15-7.76,0.72c-7.35,2.45-13.8,8.86-20.1,13.18
	c-6.9,4.74-13.54,9.83-20.27,14.81c-5.67,4.2-16.31,11.24-25.92,16.69c-2.82,1.6-9.89,5.38-9.65-0.19
	c0.16-3.77,2.84-7.53,4.88-10.23c8.99-11.91,17.2-22.37,23.02-28.9c0.57-0.64,1.07-1.29,1.41-2.24c0.2-0.55,0.23-1.18-0.12-1.72
	c-0.54-0.84-1.84-1.03-2.71-1.14c-4.08-0.54-7.89,0.65-12.06,1.81c-4.72,1.32-10.13,5.41-14.1,8.16c-4.41,3.05-8.58,6.42-12.6,9.96
	c-6.62,5.83-10.92,9.33-17.58,15.15c-0.86,0.75-2.59,1.94-3.73,2.39c-2.29,0.92-1.12-1.94-0.86-2.86c0.67-2.37,0.96-4,0.83-6.54
	c-0.26-5.04-2.38-9.93-4.5-14.32c-2.46-5.1-2.72-9.47,0.67-14.54c1.71-2.56,4.81-4.83,4.85-7.91c0.08-5.93-7.46-3.95-10.6-1.15
	c-3.44,3.06-5.28,7.63-7.4,11.61c-3.65,6.83-7.52,13.55-11.58,20.15c-2.8,4.55-7.13,8.12-11.27,11.42
	c-5.81,4.64-12.14,8.66-18.74,12.07c-5.36,2.78-10.95,5.24-16.81,6.75c-0.79,0.2-1.6,0.4-2.42,0.57
	c-5.74,1.26-11.85,1.45-16.85-2.25c-0.84-0.62-1.5-1.59-1.91-2.55c-0.49-1.15,0.48-1.09,1.31-1.14c0.53-0.03,1.07-0.07,1.6-0.12
	c1.04-0.1,2.07-0.23,3.1-0.39c2.09-0.32,4.16-0.74,6.23-1.2c9.31-2.1,19.09-6.26,26.36-12.5c4.54-3.89,8.98-8.85,10.9-14.61
	c0.63-1.89,0.97-3.88,0.92-5.88c-0.16-7.23-6.15-11.87-12.78-13.25c-9.82-2.07-23.38,1.39-31.64,6.56
	c-7.93,4.96-13.34,8.35-19.81,17.65c-3.62,5.21-5.6,10.06-6.13,18.76c-0.08,1.23-0.24,1.27-1.92,1.67
	c-3.49,0.83-10.01,2.33-13.1,2.55c-3.22,0.23-7.75-0.15-8.31-3.9c-0.35-2.34,0.75-5.42,1.98-7.38c3.01-4.77,5.88-9.73,8.97-14.52
	c2.34-3.63,4.67-7.36,6.89-11c2.07-3.38-1.05-6.26-4.67-5.08c-4.41,1.43-9.75,3.78-14.42,1.46c-2.32-1.15-4.68-2.2-7.08-3.12
	c-13.98-5.34-29.48-4.86-42.21,3.3c-11.19,7.17-18.5,17.69-28.3,26.49c-4.74,4.25-9.87,8.2-15.67,10.88
	c-2.88,1.32-5.9,2.32-9.01,2.91c-4.11,0.77-10.31,1.16-8.05-4.89c1.03-2.78,3.69-5.65,5.78-7.67c2.4-2.32,5.06-4.37,7.69-6.41
	c2.25-1.75,7.78-5.04,9.9-6.92c2.06-1.82,1.52-5.17-0.78-6.55c-2.67-1.62-7.97-1.53-9.86-4.05c-1.62-2.16-2.66-4.64-3.39-7.23
	c-0.62-2.17-0.66-4.32-0.92-6.48c-0.23-1.9-1.96-1.95-3.64-1.8c-3.28,0.29-6.93,1.57-9.82,3.16c-3.51,1.95-6.46,4.65-9.42,7.32
	c-3.41,3.08-7.06,6.15-11.83,6.59c-7.26,0.66-13.02-3.98-18.75-7.86c-3.88-2.64-11.18-1.48-15.08-0.15
	c-16.79,5.73-35.45,17.23-40.71,35.15c-3.77,12.83,0.5,24.59,12.64,28.2c13.09,3.9,28.77-1.5,38.39-9.88
	c9.61-8.36,17.07-16.93,18.85-29.45c0.13-0.89,0.23-3.54,0.08-5.11c-0.34-3.45,0.97-4.15,1.66-4.25
	c14.05-2.02,16.79-7.46,21.13-10.24c4.24-2.72,9.57,1.86,9.48,9.47c-0.05,4.08-14.13,12.59-21.21,27.63
	c-13.94,29.63,19.39,15.92,40.96,5.51c10.18-4.92,8.06,4.41,10.56,8.48c4.2,6.84,13.51,8.52,20.91,8.04
	c7.65-0.49,15.14-2.28,22.14-5.37c5.81-2.57,10.54-6.58,15.69-10.19c0.55-0.38,2.17-0.87,1.97-0.56
	c-4.32,6.54-8.95,12.71-15.05,17.66c-4.02,3.26-7.88,6.89-13.27,12.32c-2.85,2.87-11.4,12.05-11.95,16.29
	c-0.58,4.39,4.81,3.16,7.67,2.53c2.89-0.64,5.61-1.96,8.16-3.43c6.97-4,13.35-9.44,18.73-15.39c6.16-6.82,10.68-14.68,17.68-20.86
	c4.53-4,10.02-7.09,16.04-8.01c3.34-0.51,11.84-1.78,13.01-1.92c2.17-0.25,2.5,0.98,3.32,2.35c3.44,5.77,8.92,10.01,15.26,11.83
	c7.4,2.13,17.23,0.17,24.61-1.8c15.98-4.24,29.44-15.19,41.68-25.95c1.92-1.69,3.73-3.56,5.52-5.38c0.82-0.83,5.17-4.73,5.35-4.9
	c0.53-0.49,1.61-1.55,2.45-1.58c2.6-0.09,3.12,5.02,3.21,7.1c0.12,2.65-0.76,5.4-1.98,7.72c-1.35,2.56-3.35,4.79-5.86,6.25
	c-2.59,1.51-7.79,1.93-10.39,2.79c-8.29,2.74-13.27,9.58-11.11,12.84c2.24,3.38,8.03,3.44,11.26,3.54
	c11.06,0.35,21.73-6.32,29.84-12.97c6.82-5.6,12.38-12.72,19.21-18.3c2.08-1.7,8.23-7.69,11.02-5.51c0.86,0.67-3.72,5.53-6.51,9.85
	c-3.04,4.73-8.79,13.43-7.33,19.25c0.66,2.67,2.84,4.29,5.33,5.19c1.99,0.71,4.12,0.99,6.21,1.16c4.23,0.34,8.54-1.91,12.21-3.72
	c4.22-2.09,8.34-4.4,12.39-6.83c8.08-4.82,15.89-10.08,23.82-15.13c0.48-0.3,0.81,0.09,0.8,0.38c-0.09,4.54-6.27,10.46-5.26,15.37
	c3.29,15.97,25.51,2.71,33.08-1.83c6.09-3.66,11.95-7.7,17.76-11.79c2.23-1.58,4.45-3.17,6.7-4.72c1.55-1.07,2.25-1.57,3.43-2.39
	c1.72-1.2-1.08,3.96-2.13,5.45c-3.46,4.93-10.72,14.75-5.45,20.7c3.76,4.25,10.8,2.25,15.45,0.68c8.34-2.81,16.91-7.33,24.48-11.75
	c10.7-6.24,32.11-18.24,42.18-26.33c1.48-1.19,3.24,0.12,3.44,0.23c6.91,3.62,9.58,4.75,12.52,6.45c4.23,2.45,8.11,6.34,3.57,11.07
	c-2.39,2.48-5.87,3.34-9.22,3.31c-1.26-0.01-2.52-0.14-3.76-0.36c-1.21-0.21-2.41-0.7-3.62-0.78c-2.75-0.18-5.43,1.26-7.75,2.58
	c-3.7,2.1-7.15,4.94-9.73,8.35c-1.7,2.25-3.34,5.24-2.96,8.15c0.07,0.51,0.36,1.53,1.93,1.84c8.78,1.72,17.94,1.86,26.81,1.03
	c10.96-1.04,22.67-3.74,31.55-10.6c4-3.09,7.27-7.11,9.08-11.86c1.78-4.67,2.28-11.02-0.55-15.39c-2.04-3.16-5.32-5.15-8.37-7.22
	c-5.74-3.89-17.86-10.1-25.31-15.29c-1.67-1.16-4.39-3.28-3.87-8.19c0.52-4.88,5.51-9.13,9.18-11.94c4.57-3.49,9.76-6.23,15.16-8.19
	c5.24-1.89,20.4-6.2,21.27,3.29c0.42,7.45-6.7,10.05-12.11,14.69c-3.79,3.57,3.95,11.82,9.49,11.72c0.82-0.01,1.77-0.51,2-0.63
	c4.86-2.41,8.99-5.85,12.23-10.25c2.29-3.11,4.33-6.46,5.81-10.04c2.41-5.81,3.5-12.87,0.13-18.55
	c-6.96-11.76-24.34-5.78-34.29-2.09c-12.79,4.74-25.41,11.41-35.29,20.94c-1.98,1.91-3.82,3.95-5.48,6.14
	c-2.56,3.38-4.28,6.3-5.69,10.31c-1.32,3.76-1.69,7.75-2.88,11.56C722.59,305.09,715.97,309.83,709.01,314.87 M192.72,331.73
	c2.62-13.99,12.05-24.95,18.72-29.14c4.16-2.62,12.38-6.86,16.93-4.53c10.35,5.3,0.05,23.84-4.67,30.01
	c-4.88,6.38-10.66,12.51-20.55,16.26C190.01,349.32,192.11,334.97,192.72,331.73 M327.14,328.87c-0.16-1.91,0.45-3.9,1.36-5.79
	c1.08-2.25,2.21-4.43,3.58-6.53c2.77-4.25,6.16-8.09,9.93-11.47c9-8.05,25.3-17.37,36.78-8.58c0.84,0.64,1.44,1.56,1.73,2.59
	c0.84,3.01-0.73,6.41-2.14,8.99c-2.21,4.06-5.23,7.69-8.43,11c-6.91,7.14-15.61,13.88-25.28,16.69c-3.74,1.09-7.94,1.57-11.62,0.03
	c-1.72-0.73-3.22-1.86-4.4-3.3C327.7,331.36,327.25,330.14,327.14,328.87 M431.06,320.72c0.6-4.25,1.74-7.69,4.34-11.23
	c4.02-5.48,9.56-10.06,15.53-13.28c4.3-2.31,9.57-4.55,13.71-2.44c4.35,2.21-0.36,11.42-3.11,14.65
	c-7.11,8.36-12.55,11.63-23.74,15.07c-1.31,0.4-6.63,1.86-6.85,0.49C430.84,323.32,431.01,321.03,431.06,320.72"/>
<path class="st0" d="M402.4,385.18c-0.03-0.23-0.03-0.47,0.02-0.73s0.09-0.49,0.13-0.69c0.02-0.89,0.03-1.79,0.03-2.71
	c0-0.92,0-1.92-0.01-3c-0.01-1.08-0.02-2.28-0.03-3.59c-0.01-1.31-0.01-2.81-0.01-4.48l-0.15-1.71c0-0.36,0.02-0.65,0.05-0.88
	c0.03-0.23,0.1-0.41,0.21-0.55c0.11-0.14,0.25-0.23,0.44-0.28c0.19-0.05,0.44-0.08,0.74-0.08c0.42,0,0.84-0.01,1.26-0.02
	c0.41-0.01,0.83-0.03,1.26-0.04c0.43-0.02,0.86-0.04,1.28-0.07c0.42-0.03,0.85-0.05,1.3-0.05c0.3,0,0.67,0.01,1.11,0.03
	c0.44,0.02,0.91,0.08,1.4,0.18c0.49,0.11,0.97,0.27,1.46,0.49c0.49,0.22,0.92,0.53,1.31,0.94c0.39,0.41,0.7,0.92,0.94,1.54
	c0.24,0.62,0.36,1.39,0.36,2.29c0,0.78-0.16,1.49-0.48,2.14c-0.32,0.65-0.73,1.22-1.23,1.7c0.21,0.08,0.42,0.18,0.61,0.29
	c0.19,0.11,0.37,0.22,0.53,0.34c0.16,0.11,0.29,0.22,0.41,0.33c0.11,0.11,0.2,0.19,0.26,0.26c0.36,0.45,0.66,0.95,0.9,1.52
	c0.23,0.56,0.35,1.12,0.35,1.67c0,0.95-0.1,1.76-0.3,2.44c-0.2,0.68-0.48,1.26-0.84,1.73c-0.36,0.47-0.8,0.85-1.32,1.14
	c-0.52,0.29-1.09,0.51-1.73,0.67c-0.64,0.16-1.33,0.26-2.08,0.31c-0.75,0.05-1.54,0.08-2.36,0.08c-0.14,0-0.35-0.01-0.61-0.02
	c-0.26-0.02-0.55-0.04-0.86-0.07s-0.64-0.07-0.97-0.11c-0.33-0.04-0.64-0.09-0.91-0.14c-0.21,0.09-0.5,0.14-0.86,0.14
	c-0.46,0-0.82-0.08-1.1-0.23C402.62,385.79,402.45,385.54,402.4,385.18 M405.38,383.48c0.2,0.03,0.41,0.07,0.62,0.1
	c0.21,0.03,0.46,0.06,0.73,0.09c0.27,0.03,0.59,0.05,0.96,0.06c0.36,0.02,0.8,0.03,1.3,0.03c0.58,0,1.16-0.03,1.76-0.1
	s1.14-0.22,1.62-0.45c0.49-0.23,0.89-0.56,1.19-1c0.31-0.44,0.46-1.02,0.46-1.75c0-0.6-0.12-1.1-0.35-1.51
	c-0.23-0.41-0.52-0.73-0.86-0.98c-0.34-0.25-0.71-0.43-1.11-0.53c-0.4-0.11-0.76-0.16-1.09-0.16c-0.3,0-0.6,0-0.91,0.01
	c-0.31,0.01-0.66,0.02-1.06,0.03s-0.86,0.03-1.39,0.04c-0.53,0.01-1.16,0.02-1.89,0.03v2.51c0,0.66,0,1.21,0.01,1.66
	c0.01,0.44,0.01,0.81,0.01,1.1V383.48z M405.38,374.81c0.31,0.04,0.63,0.08,0.95,0.11c0.32,0.03,0.61,0.04,0.86,0.04
	c1.01,0,1.86-0.04,2.55-0.11c0.7-0.08,1.26-0.23,1.69-0.45c0.43-0.22,0.74-0.54,0.93-0.93c0.19-0.4,0.29-0.92,0.29-1.56
	c0-0.53-0.07-0.99-0.22-1.36c-0.14-0.37-0.37-0.67-0.68-0.91c-0.31-0.23-0.7-0.4-1.18-0.51c-0.48-0.11-1.05-0.16-1.71-0.16
	c-0.25,0-0.65,0-1.2,0.01c-0.55,0-1.32,0.03-2.29,0.07v0.03c0,0.02,0,0.03,0.01,0.04c0,0.01,0.01,0.03,0.01,0.05
	c0.02,0.87,0.02,1.76,0.02,2.65c0,0.9-0.01,1.84-0.03,2.83V374.81z"/>
<path class="st0" d="M421.65,385.16c0-0.27,0.04-0.54,0.11-0.82c0.08-0.27,0.22-0.55,0.42-0.83c0.14-0.25,0.34-0.62,0.59-1.12
	c0.25-0.5,0.53-1.09,0.85-1.77c0.31-0.68,0.65-1.42,1.01-2.21c0.36-0.8,0.73-1.62,1.1-2.45c0.37-0.83,0.74-1.67,1.11-2.5
	c0.37-0.83,0.72-1.62,1.05-2.35c0.33-0.73,0.63-1.39,0.9-1.99c0.27-0.59,0.5-1.07,0.68-1.43c0.02-0.19,0.08-0.37,0.15-0.55
	c0.07-0.18,0.18-0.35,0.3-0.49c0.13-0.15,0.28-0.27,0.46-0.36c0.18-0.09,0.39-0.13,0.62-0.13c0.3,0,0.55,0.04,0.74,0.13
	c0.19,0.08,0.35,0.2,0.47,0.35c0.12,0.15,0.22,0.32,0.3,0.51s0.15,0.4,0.23,0.62c0.07,0.19,0.13,0.38,0.19,0.55
	c0.06,0.17,0.11,0.31,0.16,0.4c0.57,1.13,1.12,2.28,1.66,3.43c0.54,1.15,1.07,2.32,1.6,3.51c0.53,1.19,1.07,2.39,1.61,3.61
	c0.54,1.22,1.1,2.46,1.69,3.72l0.24,0.36c0.07,0.09,0.15,0.21,0.24,0.34c0.09,0.13,0.18,0.27,0.26,0.42
	c0.08,0.15,0.15,0.31,0.2,0.48c0.05,0.17,0.08,0.34,0.08,0.51c0,0.51-0.14,0.87-0.43,1.09c-0.29,0.22-0.64,0.32-1.05,0.32
	c-0.23,0-0.44-0.04-0.63-0.11c-0.19-0.07-0.36-0.17-0.5-0.29c-0.14-0.12-0.26-0.27-0.34-0.43c-0.08-0.16-0.14-0.34-0.17-0.53
	c-0.24-0.52-0.46-1-0.66-1.45c-0.2-0.45-0.4-0.89-0.59-1.31c-0.19-0.42-0.37-0.84-0.55-1.24c-0.18-0.4-0.36-0.81-0.53-1.21
	c-0.14,0-0.33,0-0.57-0.01c-0.24,0-0.52-0.01-0.83-0.03c-0.48,0-0.97-0.01-1.47-0.01c-0.49-0.01-1-0.02-1.52-0.02
	c-0.52-0.01-1.05-0.01-1.6,0c-0.55,0-1.13,0.02-1.73,0.04c-0.09,0.01-0.18,0.01-0.27,0.02c-0.08,0-0.17,0.01-0.27,0.01
	c-0.24,0.57-0.46,1.12-0.67,1.64c-0.21,0.52-0.4,1-0.57,1.44c-0.17,0.44-0.32,0.83-0.45,1.17c-0.13,0.34-0.23,0.62-0.3,0.83v-0.01
	c-0.05,0.19-0.11,0.37-0.17,0.54c-0.06,0.18-0.16,0.34-0.27,0.48c-0.12,0.14-0.28,0.25-0.49,0.34c-0.21,0.09-0.48,0.13-0.82,0.13
	c-0.46,0-0.84-0.11-1.14-0.34S421.65,385.6,421.65,385.16 M428.13,377.16h0.69c0.28,0,0.65,0,1.1,0.01c0.45,0,1.01,0.01,1.67,0.01
	c0.66,0,1.46,0.01,2.4,0.02c-0.39-0.85-0.83-1.8-1.32-2.86c-0.49-1.06-1.07-2.3-1.74-3.71c-0.2,0.43-0.4,0.91-0.62,1.42
	c-0.22,0.52-0.45,1.05-0.69,1.61c-0.24,0.56-0.49,1.13-0.74,1.73C428.64,375.98,428.39,376.57,428.13,377.16"/>
<path class="st0" d="M446.28,384.96c0-2.88-0.01-5.74-0.02-8.58c-0.01-2.84-0.03-5.71-0.04-8.6c0-0.58,0.12-1,0.37-1.25
	c0.25-0.25,0.64-0.38,1.16-0.38c0.2,0,0.38,0.03,0.56,0.09c0.18,0.06,0.34,0.15,0.47,0.26c0.14,0.11,0.24,0.25,0.33,0.41
	c0.08,0.16,0.12,0.34,0.12,0.55c0,1.21,0,2.36-0.01,3.45c-0.01,1.09-0.01,2.19-0.02,3.3l6.77-6.4c0.09-0.13,0.24-0.3,0.44-0.49
	c0.2-0.19,0.41-0.37,0.65-0.55c0.23-0.17,0.47-0.32,0.7-0.44c0.23-0.12,0.44-0.18,0.62-0.18c0.19,0,0.38,0.02,0.56,0.08
	c0.18,0.05,0.33,0.13,0.46,0.24c0.13,0.11,0.24,0.25,0.32,0.43c0.08,0.18,0.12,0.39,0.12,0.64c0,0.26-0.04,0.49-0.12,0.68
	c-0.08,0.19-0.19,0.36-0.32,0.51c-0.14,0.15-0.29,0.28-0.45,0.39c-0.17,0.11-0.34,0.22-0.51,0.32c-1.21,1.08-2.43,2.13-3.67,3.15
	c-1.23,1.03-2.49,2.08-3.76,3.15c0.56,0.15,1.11,0.41,1.64,0.77c0.54,0.36,1.05,0.77,1.54,1.24c0.49,0.47,0.95,0.97,1.36,1.5
	c0.42,0.53,0.79,1.05,1.11,1.55c0.24,0.38,0.49,0.75,0.73,1.11c0.24,0.36,0.48,0.67,0.71,0.93c0.23,0.27,0.46,0.48,0.69,0.64
	c0.22,0.16,0.45,0.24,0.67,0.24c0.18,0,0.38,0.01,0.6,0.02c0.22,0.01,0.43,0.06,0.62,0.14c0.2,0.08,0.36,0.2,0.49,0.37
	c0.13,0.17,0.2,0.41,0.2,0.72c0,0.35-0.07,0.62-0.22,0.83c-0.15,0.2-0.33,0.36-0.55,0.46c-0.22,0.1-0.47,0.16-0.74,0.19
	c-0.28,0.03-0.54,0.04-0.81,0.04c-0.48,0-0.94-0.12-1.38-0.38c-0.44-0.25-0.85-0.58-1.24-0.99c-0.39-0.41-0.77-0.87-1.14-1.39
	c-0.36-0.52-0.72-1.04-1.08-1.58c-0.32-0.48-0.67-0.97-1.05-1.47c-0.38-0.49-0.78-0.95-1.21-1.37c-0.43-0.42-0.87-0.78-1.34-1.1
	c-0.47-0.31-0.94-0.53-1.42-0.66V379c0,0.95,0,1.86,0.01,2.73c0,0.87,0.01,1.65,0.02,2.34c0.03,0.24,0.04,0.45,0.05,0.63
	c0.01,0.18,0.02,0.36,0.03,0.53c0,0.44-0.14,0.76-0.43,0.97c-0.28,0.21-0.67,0.31-1.17,0.31c-0.11,0-0.25-0.02-0.41-0.06
	c-0.16-0.04-0.32-0.11-0.46-0.23c-0.15-0.11-0.28-0.27-0.38-0.48C446.34,385.54,446.28,385.28,446.28,384.96"/>
<path class="st0" d="M466.85,384.96c0-2.88-0.01-5.74-0.02-8.58c-0.01-2.84-0.03-5.71-0.04-8.6c0-0.58,0.12-1,0.38-1.25
	c0.25-0.25,0.64-0.38,1.16-0.38c0.2,0,0.38,0.03,0.56,0.09c0.18,0.06,0.33,0.15,0.47,0.26c0.14,0.11,0.24,0.25,0.32,0.41
	c0.08,0.16,0.12,0.34,0.12,0.55c0,1.21,0,2.36-0.01,3.45c0,1.09-0.01,2.19-0.02,3.3l6.77-6.4c0.09-0.13,0.24-0.3,0.44-0.49
	c0.2-0.19,0.41-0.37,0.65-0.55c0.23-0.17,0.47-0.32,0.7-0.44c0.23-0.12,0.44-0.18,0.61-0.18c0.2,0,0.38,0.02,0.56,0.08
	c0.18,0.05,0.33,0.13,0.46,0.24c0.13,0.11,0.24,0.25,0.32,0.43c0.08,0.18,0.12,0.39,0.12,0.64c0,0.26-0.04,0.49-0.12,0.68
	c-0.08,0.19-0.19,0.36-0.32,0.51c-0.14,0.15-0.29,0.28-0.45,0.39c-0.16,0.11-0.34,0.22-0.51,0.32c-1.21,1.08-2.43,2.13-3.67,3.15
	c-1.24,1.03-2.49,2.08-3.76,3.15c0.56,0.15,1.11,0.41,1.64,0.77c0.54,0.36,1.05,0.77,1.54,1.24c0.49,0.47,0.95,0.97,1.37,1.5
	c0.42,0.53,0.79,1.05,1.11,1.55c0.25,0.38,0.49,0.75,0.73,1.11c0.24,0.36,0.48,0.67,0.71,0.93c0.23,0.27,0.46,0.48,0.69,0.64
	c0.22,0.16,0.45,0.24,0.67,0.24c0.18,0,0.38,0.01,0.6,0.02c0.22,0.01,0.43,0.06,0.62,0.14c0.2,0.08,0.36,0.2,0.49,0.37
	c0.13,0.17,0.2,0.41,0.2,0.72c0,0.35-0.07,0.62-0.22,0.83s-0.33,0.36-0.55,0.46c-0.22,0.1-0.47,0.16-0.74,0.19
	c-0.27,0.03-0.54,0.04-0.81,0.04c-0.48,0-0.94-0.12-1.38-0.38c-0.44-0.25-0.85-0.58-1.24-0.99c-0.39-0.41-0.77-0.87-1.14-1.39
	c-0.36-0.52-0.72-1.04-1.08-1.58c-0.32-0.48-0.67-0.97-1.05-1.47s-0.78-0.95-1.21-1.37c-0.43-0.42-0.87-0.78-1.34-1.1
	c-0.46-0.31-0.94-0.53-1.42-0.66V379c0,0.95,0,1.86,0.01,2.73c0,0.87,0.01,1.65,0.02,2.34c0.03,0.24,0.04,0.45,0.05,0.63
	c0.01,0.18,0.02,0.36,0.03,0.53c0,0.44-0.14,0.76-0.43,0.97c-0.28,0.21-0.67,0.31-1.17,0.31c-0.11,0-0.24-0.02-0.41-0.06
	c-0.16-0.04-0.32-0.11-0.46-0.23c-0.15-0.11-0.27-0.27-0.38-0.48C466.9,385.54,466.85,385.28,466.85,384.96"/>
<path class="st0" d="M487.35,384.7c0-0.14,0.02-0.3,0.06-0.46c0.04-0.16,0.08-0.31,0.12-0.45l0.11-0.41l-0.29-15.18
	c0-0.41,0.05-0.74,0.15-0.96c0.1-0.23,0.22-0.4,0.37-0.51c0.15-0.11,0.33-0.17,0.53-0.19c0.2-0.02,0.4-0.03,0.6-0.03h6.69
	c0.15-0.02,0.32-0.04,0.51-0.07s0.32-0.04,0.4-0.04c0.32,0,0.58,0.03,0.78,0.09c0.2,0.06,0.35,0.15,0.47,0.26
	c0.11,0.12,0.19,0.26,0.23,0.43c0.04,0.17,0.06,0.37,0.06,0.6c0,0.32-0.04,0.58-0.12,0.77c-0.08,0.19-0.19,0.35-0.33,0.45
	c-0.14,0.11-0.3,0.18-0.49,0.21c-0.19,0.03-0.39,0.05-0.6,0.05c-0.09,0-0.22,0-0.37-0.01c-0.15-0.01-0.31-0.02-0.48-0.03h-1.99
	c-0.5,0-0.9,0-1.21,0.01c-0.3,0.01-0.53,0.01-0.69,0.01h-0.41h-1.18v4.02c0.05,0,0.11,0,0.18,0.01c0.07,0.01,0.18,0.01,0.34,0.01
	h0.63h1.07h1.66h2.4c0.09,0,0.2-0.01,0.32-0.01c0.12-0.01,0.24-0.02,0.36-0.04c0.15-0.02,0.33-0.03,0.53-0.05s0.42-0.02,0.66-0.02
	c0.23,0,0.43,0.05,0.61,0.14c0.18,0.09,0.33,0.21,0.45,0.35c0.12,0.14,0.22,0.29,0.28,0.45c0.06,0.16,0.1,0.31,0.1,0.46
	c0,0.46-0.15,0.79-0.45,1c-0.3,0.21-0.69,0.32-1.16,0.32l-7.97,0.01v7.61c0.84,0,1.68,0.01,2.53,0.04c0.85,0.02,1.73,0.04,2.65,0.04
	c0.25,0,0.49-0.01,0.7-0.04c0.21-0.03,0.41-0.05,0.61-0.09c0.18-0.02,0.36-0.05,0.54-0.07s0.38-0.03,0.6-0.03
	c0.25,0,0.49,0.02,0.7,0.06c0.22,0.04,0.4,0.1,0.56,0.2c0.16,0.1,0.29,0.23,0.38,0.39c0.09,0.17,0.14,0.38,0.14,0.63
	c0,0.37-0.06,0.66-0.19,0.86c-0.13,0.2-0.3,0.35-0.51,0.45c-0.22,0.1-0.46,0.16-0.74,0.18c-0.27,0.02-0.56,0.03-0.86,0.03h-8.54
	c-0.22,0-0.42-0.02-0.6-0.08c-0.18-0.05-0.34-0.13-0.48-0.25c-0.14-0.11-0.24-0.26-0.32-0.44
	C487.39,385.19,487.35,384.96,487.35,384.7"/>
<path class="st0" d="M506.81,384.73c0-0.19,0.01-0.37,0.03-0.55c0.02-0.18,0.03-0.34,0.05-0.49v-3.25v-2.77v-2.42v-2.19
	c0-0.71,0-1.4,0.01-2.08c0-0.68,0.01-1.38,0.01-2.09c-0.04-0.12-0.08-0.28-0.12-0.49c-0.04-0.21-0.06-0.41-0.06-0.6
	c0-0.18,0.03-0.36,0.08-0.53c0.06-0.18,0.14-0.34,0.25-0.48c0.11-0.14,0.26-0.25,0.42-0.34c0.17-0.08,0.36-0.13,0.58-0.13
	c0.36,0,0.72,0.02,1.08,0.06c0.36,0.04,0.77,0.06,1.23,0.06c0.38,0,0.76-0.02,1.14-0.06c0.38-0.04,0.79-0.06,1.22-0.07
	c1.28,0,2.44,0.13,3.47,0.38c1.04,0.25,1.92,0.65,2.65,1.18c0.73,0.53,1.3,1.21,1.69,2.04c0.4,0.83,0.6,1.81,0.6,2.95
	c0,1.08-0.15,2.05-0.45,2.89c-0.3,0.84-0.68,1.58-1.15,2.2c-0.47,0.63-0.99,1.15-1.57,1.57c-0.58,0.42-1.14,0.74-1.7,0.96
	c0.08,0.46,0.2,0.89,0.36,1.29c0.16,0.4,0.38,0.76,0.64,1.06c0.26,0.31,0.56,0.55,0.91,0.72c0.35,0.18,0.74,0.27,1.17,0.27
	c0.32,0,0.61-0.05,0.88-0.15c0.27-0.1,0.5-0.3,0.69-0.6c0.12-0.17,0.26-0.32,0.43-0.45c0.17-0.13,0.39-0.2,0.65-0.2
	c0.46,0,0.81,0.13,1.07,0.38c0.25,0.25,0.38,0.58,0.38,0.96c0,0.36-0.1,0.71-0.31,1.04c-0.21,0.33-0.5,0.62-0.88,0.87
	c-0.38,0.25-0.83,0.45-1.36,0.6c-0.53,0.15-1.12,0.22-1.78,0.22c-0.6,0-1.15-0.09-1.63-0.26c-0.49-0.17-0.92-0.41-1.31-0.7
	c-0.39-0.29-0.73-0.63-1.02-1c-0.3-0.38-0.55-0.77-0.76-1.18c-0.21-0.41-0.39-0.82-0.52-1.23c-0.14-0.41-0.24-0.79-0.32-1.14h-0.41
	h-0.52c-0.18,0-0.35,0-0.53-0.01c-0.17-0.01-0.32-0.01-0.42-0.01c-0.25-0.01-0.55-0.01-0.91-0.02c-0.36,0-0.69-0.01-0.98-0.01v1.85
	c0.02,0.4,0.07,0.78,0.15,1.16c0.08,0.38,0.13,0.76,0.13,1.16c0,0.24-0.05,0.45-0.15,0.62c-0.1,0.17-0.22,0.31-0.37,0.42
	c-0.15,0.11-0.32,0.2-0.49,0.25c-0.18,0.05-0.35,0.08-0.51,0.08c-0.25,0-0.49-0.04-0.7-0.13c-0.21-0.09-0.39-0.21-0.55-0.37
	c-0.15-0.16-0.27-0.34-0.36-0.56S506.81,384.99,506.81,384.73 M509.78,378.23c0.22,0.01,0.48,0.02,0.77,0.03
	c0.3,0.01,0.58,0.02,0.85,0.02c0.27,0.01,0.51,0.01,0.72,0.02c0.21,0,0.35,0.01,0.41,0.01c1.14,0,2.08-0.16,2.81-0.47
	c0.73-0.31,1.31-0.73,1.72-1.24c0.41-0.52,0.7-1.11,0.86-1.78c0.16-0.67,0.23-1.35,0.23-2.06c0-0.62-0.1-1.14-0.29-1.57
	c-0.2-0.43-0.45-0.78-0.78-1.06c-0.32-0.28-0.68-0.5-1.09-0.66c-0.41-0.16-0.82-0.28-1.24-0.36c-0.42-0.08-0.83-0.12-1.23-0.14
	c-0.4-0.02-0.76-0.03-1.06-0.03c-0.43,0-0.87,0.01-1.31,0.02c-0.44,0.01-0.92,0.02-1.44,0.03c-0.02,0.32-0.03,0.61-0.03,0.88
	c0,0.26-0.01,0.52-0.01,0.77c0,0.25-0.01,0.5-0.01,0.76v0.87c0,0.58,0,1.11,0.01,1.61c0.01,0.5,0.01,0.98,0.02,1.45
	c0.01,0.47,0.02,0.94,0.03,1.42C509.73,377.22,509.75,377.71,509.78,378.23 M515.73,380.66c-0.01,0-0.01,0-0.01,0.01L515.73,380.66z
	"/>
<path class="st0" d="M541.08,381.58c0.04-0.68,0.18-1.21,0.42-1.57c0.24-0.36,0.67-0.54,1.28-0.54c0.38,0,0.71,0.11,0.98,0.32
	s0.41,0.51,0.41,0.89c0,0.22-0.02,0.44-0.06,0.66c-0.04,0.22-0.05,0.45-0.04,0.68c0.03,0.29,0.16,0.55,0.38,0.79
	c0.22,0.24,0.5,0.44,0.84,0.62c0.34,0.17,0.72,0.31,1.15,0.41c0.43,0.1,0.87,0.15,1.32,0.15c0.46,0,0.91-0.04,1.36-0.12
	c0.45-0.08,0.86-0.23,1.23-0.45c0.37-0.22,0.67-0.52,0.9-0.9c0.23-0.38,0.34-0.88,0.34-1.49c0-0.4-0.1-0.77-0.29-1.12
	c-0.19-0.35-0.44-0.67-0.75-0.96c-0.3-0.29-0.64-0.56-1.01-0.79c-0.37-0.24-0.72-0.44-1.06-0.62c-0.48-0.25-0.98-0.48-1.48-0.72
	s-0.99-0.48-1.47-0.74c-0.48-0.26-0.93-0.54-1.36-0.85s-0.8-0.67-1.12-1.08c-0.32-0.42-0.57-0.9-0.76-1.44
	c-0.19-0.55-0.28-1.18-0.28-1.9c0-0.8,0.17-1.5,0.51-2.08c0.34-0.58,0.79-1.07,1.35-1.45c0.56-0.38,1.2-0.66,1.92-0.84
	s1.47-0.27,2.23-0.27c0.68,0,1.33,0.06,1.97,0.18c0.63,0.12,1.2,0.31,1.7,0.58c0.5,0.27,0.91,0.62,1.24,1.07
	c0.33,0.44,0.53,0.99,0.6,1.63c0.02,0.24-0.01,0.45-0.09,0.63c-0.08,0.18-0.18,0.33-0.32,0.46c-0.13,0.12-0.29,0.22-0.46,0.28
	c-0.17,0.06-0.35,0.1-0.53,0.1c-0.27,0-0.5-0.04-0.69-0.13c-0.19-0.08-0.34-0.19-0.46-0.32c-0.12-0.13-0.21-0.27-0.27-0.43
	c-0.06-0.16-0.1-0.32-0.11-0.47c-0.13-0.2-0.29-0.37-0.49-0.5c-0.2-0.13-0.43-0.24-0.68-0.32c-0.25-0.08-0.51-0.14-0.78-0.17
	s-0.53-0.04-0.79-0.04c-0.35,0-0.71,0.04-1.06,0.11c-0.35,0.08-0.67,0.2-0.96,0.37c-0.29,0.17-0.52,0.39-0.7,0.65
	c-0.18,0.26-0.27,0.58-0.27,0.97c0,0.45,0.1,0.85,0.32,1.19c0.21,0.35,0.48,0.66,0.8,0.93c0.32,0.27,0.68,0.52,1.07,0.74
	c0.39,0.22,0.78,0.42,1.15,0.61c0.45,0.23,0.92,0.47,1.4,0.73s0.95,0.54,1.41,0.84c0.46,0.3,0.9,0.63,1.31,0.98
	c0.41,0.36,0.78,0.75,1.09,1.19s0.56,0.91,0.74,1.43c0.18,0.52,0.27,1.09,0.27,1.71c0,0.67-0.09,1.27-0.28,1.79
	c-0.18,0.52-0.44,0.99-0.76,1.38c-0.32,0.4-0.7,0.74-1.13,1.02c-0.43,0.28-0.9,0.51-1.4,0.68c-0.5,0.18-1.02,0.31-1.55,0.39
	c-0.54,0.08-1.07,0.12-1.61,0.12c-0.45,0-0.93-0.04-1.44-0.11c-0.51-0.08-1.02-0.2-1.52-0.36c-0.5-0.17-0.98-0.38-1.43-0.64
	c-0.45-0.26-0.85-0.57-1.19-0.94c-0.34-0.37-0.61-0.79-0.8-1.27C541.15,382.72,541.06,382.18,541.08,381.58"/>
<path class="st0" d="M562.38,385.12c0-0.43,0.03-0.86,0.09-1.28c0.06-0.42,0.1-0.86,0.1-1.34c0-2.16-0.02-4.33-0.06-6.51
	c-0.04-2.18-0.06-4.43-0.06-6.73c0-0.24-0.03-0.48-0.08-0.72c-0.05-0.24-0.08-0.5-0.08-0.78c0-0.22,0.03-0.43,0.09-0.62
	c0.06-0.2,0.16-0.37,0.3-0.51c0.14-0.15,0.34-0.27,0.6-0.35c0.25-0.08,0.57-0.13,0.95-0.13c0.38,0,0.68,0.14,0.9,0.43
	c0.22,0.29,0.33,0.67,0.33,1.15c0,0.14-0.01,0.29-0.04,0.43c-0.03,0.14-0.05,0.29-0.08,0.44c-0.02,0.73-0.03,1.51-0.04,2.35
	c-0.01,0.84-0.01,1.8-0.01,2.88c0,0.97,0,1.95,0.01,2.96c0.01,1.01,0.02,1.98,0.04,2.91c0.02,0.93,0.04,1.8,0.07,2.61
	c0.03,0.81,0.07,1.5,0.11,2.09v-0.01c0.02,0.13,0.03,0.25,0.04,0.36c0.01,0.11,0.02,0.23,0.02,0.35c0,0.2-0.02,0.39-0.07,0.57
	c-0.05,0.17-0.12,0.32-0.23,0.45c-0.11,0.13-0.26,0.22-0.46,0.29c-0.2,0.07-0.44,0.1-0.72,0.1c-0.34,0-0.62-0.03-0.84-0.09
	c-0.22-0.06-0.4-0.15-0.53-0.27c-0.13-0.12-0.22-0.27-0.28-0.44C562.41,385.54,562.38,385.34,562.38,385.12"/>
<path class="st0" d="M574.17,385.32c0-0.36,0.03-0.66,0.08-0.9c0.05-0.25,0.08-0.36,0.09-0.34c0.02-0.92,0.03-1.86,0.04-2.81
	c0.01-0.95,0.02-1.95,0.02-3.01v-2.18c0-0.78-0.01-1.58-0.02-2.37c-0.01-0.8-0.03-1.59-0.06-2.36c-0.02-0.77-0.06-1.49-0.1-2.15
	c-0.03-0.2-0.06-0.37-0.08-0.53c-0.02-0.16-0.03-0.32-0.03-0.5c0-0.42,0.09-0.74,0.27-0.98c0.18-0.24,0.47-0.41,0.86-0.5
	c0.17-0.14,0.36-0.24,0.57-0.3c0.21-0.05,0.41-0.08,0.6-0.08c0.2,0,0.39,0.06,0.55,0.18c0.16,0.12,0.31,0.26,0.44,0.42
	c0.13,0.16,0.23,0.33,0.32,0.5c0.08,0.17,0.14,0.32,0.18,0.43c0.26,0.39,0.58,0.83,0.95,1.33c0.37,0.5,0.77,1.03,1.21,1.61
	c0.44,0.57,0.9,1.17,1.39,1.79c0.49,0.62,0.99,1.25,1.49,1.89c0.5,0.64,1.01,1.27,1.51,1.9c0.5,0.63,0.97,1.24,1.42,1.82
	c0.45,0.58,0.87,1.14,1.26,1.66c0.39,0.52,0.72,0.99,1,1.4c0-1.81-0.01-3.37-0.02-4.68c-0.01-1.31-0.03-2.42-0.04-3.34
	c-0.02-0.92-0.04-1.67-0.06-2.27c-0.03-0.59-0.05-1.08-0.06-1.47c-0.02-0.39-0.03-0.71-0.05-0.96c-0.01-0.25-0.02-0.49-0.02-0.72
	c0-0.34,0.04-0.62,0.11-0.83c0.07-0.22,0.17-0.38,0.3-0.5c0.13-0.12,0.3-0.2,0.49-0.24c0.19-0.04,0.42-0.06,0.67-0.06
	c0.33,0,0.59,0.07,0.77,0.2c0.19,0.14,0.33,0.31,0.43,0.51c0.1,0.21,0.16,0.44,0.18,0.7c0.02,0.26,0.03,0.51,0.03,0.76v14.56
	c0,0.3,0.02,0.61,0.05,0.92c0.03,0.31,0.05,0.64,0.05,0.98c0,0.33-0.03,0.6-0.08,0.82c-0.05,0.21-0.13,0.39-0.25,0.53
	c-0.11,0.14-0.26,0.23-0.44,0.29c-0.18,0.06-0.4,0.08-0.65,0.08c-0.47,0-0.85-0.12-1.14-0.36s-0.48-0.53-0.6-0.86
	c-0.8-1.1-1.62-2.18-2.44-3.26c-0.82-1.07-1.66-2.14-2.49-3.21c-0.84-1.07-1.68-2.15-2.53-3.24c-0.85-1.09-1.69-2.19-2.53-3.32
	l-0.76-1.19c0.01,1.29,0.02,2.45,0.03,3.46c0.01,1.01,0.02,1.91,0.02,2.7c0.01,0.79,0.02,1.49,0.03,2.1
	c0.01,0.6,0.01,1.15,0.02,1.62c0,0.48,0.01,0.91,0.01,1.31c0,0.39,0.01,0.78,0.01,1.15c0.01,0.22,0.02,0.45,0.04,0.7
	c0.02,0.25,0.03,0.49,0.03,0.73c0,0.22-0.02,0.43-0.06,0.64c-0.04,0.2-0.11,0.38-0.22,0.53c-0.11,0.15-0.26,0.27-0.46,0.36
	c-0.2,0.09-0.46,0.13-0.78,0.13c-0.43,0-0.79-0.11-1.09-0.32C574.32,385.98,574.17,385.69,574.17,385.32"/>
<path class="st0" d="M598.99,384.65c0-0.39,0.02-0.77,0.05-1.14c0.03-0.37,0.05-0.81,0.05-1.31c0-2.25-0.01-4.51-0.02-6.77
	c-0.01-2.26-0.05-4.55-0.12-6.86c-0.09-0.18-0.17-0.37-0.25-0.58c-0.07-0.21-0.11-0.39-0.11-0.55c0-0.36,0.1-0.67,0.3-0.92
	c0.2-0.25,0.54-0.38,1.02-0.38c0.24,0,0.49,0.03,0.72,0.1c0.24,0.06,0.49,0.1,0.76,0.1c0.59,0,1.18-0.03,1.77-0.1
	c0.58-0.06,1.18-0.1,1.79-0.1c1.24,0,2.36,0.12,3.35,0.36c0.99,0.24,1.85,0.58,2.6,1c0.74,0.43,1.38,0.93,1.9,1.52
	c0.53,0.59,0.95,1.23,1.28,1.93c0.33,0.7,0.57,1.44,0.72,2.22c0.15,0.78,0.23,1.58,0.23,2.38c0,0.72-0.07,1.49-0.22,2.3
	c-0.15,0.82-0.39,1.62-0.73,2.42c-0.34,0.8-0.78,1.57-1.32,2.3c-0.54,0.73-1.21,1.38-2.01,1.94c-0.8,0.56-1.72,1.01-2.79,1.34
	c-1.06,0.33-2.28,0.5-3.65,0.5c-0.32,0-0.64-0.02-0.96-0.05c-0.32-0.03-0.64-0.06-0.96-0.1c-0.32-0.04-0.64-0.07-0.97-0.1
	c-0.33-0.03-0.66-0.04-1-0.04c-0.52,0-0.88-0.12-1.1-0.36C599.1,385.49,598.99,385.13,598.99,384.65 M601.82,383.34
	c0.18,0.05,0.39,0.09,0.64,0.12c0.25,0.03,0.5,0.05,0.76,0.07c0.25,0.02,0.49,0.03,0.72,0.03c0.22,0,0.4,0.01,0.53,0.01
	c1.05,0,1.97-0.13,2.76-0.39c0.79-0.26,1.46-0.61,2.02-1.03s1.03-0.9,1.4-1.43c0.37-0.53,0.67-1.07,0.88-1.61
	c0.22-0.54,0.37-1.06,0.45-1.56c0.08-0.5,0.13-0.93,0.13-1.28c0-1.4-0.17-2.57-0.5-3.51c-0.33-0.93-0.83-1.68-1.47-2.24
	c-0.65-0.56-1.44-0.95-2.39-1.18c-0.94-0.23-2.03-0.34-3.26-0.34c-0.16,0-0.36,0-0.59,0.01c-0.23,0.01-0.48,0.02-0.73,0.02
	c-0.25,0.01-0.51,0.02-0.76,0.04c-0.25,0.02-0.47,0.03-0.67,0.04L601.82,383.34z"/>
<path class="st0" d="M621.34,381.58c0.04-0.68,0.18-1.21,0.43-1.57c0.24-0.36,0.67-0.54,1.27-0.54c0.38,0,0.71,0.11,0.98,0.32
	s0.41,0.51,0.41,0.89c0,0.22-0.02,0.44-0.06,0.66c-0.04,0.22-0.05,0.45-0.04,0.68c0.03,0.29,0.16,0.55,0.38,0.79
	c0.22,0.24,0.5,0.44,0.84,0.62c0.34,0.17,0.72,0.31,1.16,0.41c0.43,0.1,0.87,0.15,1.32,0.15c0.46,0,0.91-0.04,1.36-0.12
	c0.45-0.08,0.86-0.23,1.23-0.45c0.37-0.22,0.67-0.52,0.9-0.9c0.23-0.38,0.34-0.88,0.34-1.49c0-0.4-0.1-0.77-0.29-1.12
	c-0.19-0.35-0.44-0.67-0.75-0.96s-0.64-0.56-1.01-0.79c-0.37-0.24-0.72-0.44-1.06-0.62c-0.48-0.25-0.97-0.48-1.48-0.72
	c-0.5-0.23-0.99-0.48-1.47-0.74c-0.48-0.26-0.93-0.54-1.36-0.85s-0.8-0.67-1.12-1.08c-0.32-0.42-0.58-0.9-0.76-1.44
	c-0.19-0.55-0.28-1.18-0.28-1.9c0-0.8,0.17-1.5,0.51-2.08c0.34-0.58,0.79-1.07,1.35-1.45c0.56-0.38,1.2-0.66,1.92-0.84
	c0.72-0.18,1.47-0.27,2.23-0.27c0.68,0,1.33,0.06,1.97,0.18c0.63,0.12,1.2,0.31,1.7,0.58c0.5,0.27,0.91,0.62,1.24,1.07
	c0.33,0.44,0.53,0.99,0.6,1.63c0.02,0.24-0.01,0.45-0.09,0.63c-0.08,0.18-0.18,0.33-0.32,0.46c-0.13,0.12-0.29,0.22-0.46,0.28
	c-0.17,0.06-0.35,0.1-0.53,0.1c-0.27,0-0.5-0.04-0.69-0.13c-0.19-0.08-0.34-0.19-0.46-0.32c-0.12-0.13-0.21-0.27-0.27-0.43
	c-0.06-0.16-0.1-0.32-0.11-0.47c-0.13-0.2-0.29-0.37-0.49-0.5c-0.2-0.13-0.43-0.24-0.68-0.32c-0.25-0.08-0.51-0.14-0.78-0.17
	s-0.53-0.04-0.79-0.04c-0.35,0-0.71,0.04-1.06,0.11c-0.35,0.08-0.67,0.2-0.96,0.37c-0.29,0.17-0.52,0.39-0.7,0.65
	c-0.18,0.26-0.27,0.58-0.27,0.97c0,0.45,0.11,0.85,0.32,1.19c0.21,0.35,0.48,0.66,0.8,0.93c0.32,0.27,0.68,0.52,1.07,0.74
	c0.39,0.22,0.78,0.42,1.15,0.61c0.45,0.23,0.92,0.47,1.4,0.73s0.95,0.54,1.41,0.84c0.46,0.3,0.9,0.63,1.31,0.98
	c0.41,0.36,0.78,0.75,1.09,1.19c0.31,0.44,0.56,0.91,0.74,1.43c0.18,0.52,0.27,1.09,0.27,1.71c0,0.67-0.09,1.27-0.28,1.79
	c-0.19,0.52-0.44,0.99-0.76,1.38c-0.32,0.4-0.7,0.74-1.13,1.02c-0.43,0.28-0.9,0.51-1.4,0.68c-0.5,0.18-1.02,0.31-1.55,0.39
	c-0.54,0.08-1.07,0.12-1.61,0.12c-0.45,0-0.93-0.04-1.44-0.11c-0.51-0.08-1.02-0.2-1.52-0.36c-0.5-0.17-0.97-0.38-1.43-0.64
	c-0.45-0.26-0.85-0.57-1.19-0.94s-0.61-0.79-0.81-1.27C621.41,382.72,621.33,382.18,621.34,381.58"/>
<path class="st0" d="M657.16,385.02c0-0.41,0.03-0.82,0.08-1.23c0.05-0.42,0.08-0.88,0.08-1.38v-1.65v-1.73c0-0.6,0-1.24-0.01-1.91
	c-0.01-0.67-0.01-1.41-0.01-2.22c0-0.8-0.01-1.68-0.01-2.64c0-0.96-0.01-2.01-0.02-3.17c-0.2,0.1-0.41,0.23-0.64,0.38
	c-0.22,0.15-0.45,0.29-0.68,0.43c-0.23,0.14-0.47,0.26-0.71,0.36c-0.24,0.1-0.48,0.15-0.72,0.15c-0.43,0-0.78-0.13-1.04-0.39
	c-0.26-0.26-0.39-0.6-0.39-1.02c0-0.58,0.34-1.04,1.02-1.38c0.41-0.21,0.82-0.43,1.22-0.66c0.4-0.23,0.76-0.44,1.08-0.64
	c0.51-0.31,0.96-0.56,1.35-0.75c0.39-0.19,0.74-0.28,1.05-0.28c0.25,0,0.46,0.05,0.64,0.15c0.18,0.1,0.33,0.23,0.46,0.39
	c0.12,0.16,0.21,0.34,0.27,0.53c0.06,0.19,0.09,0.38,0.09,0.57c0,0.12-0.02,0.23-0.06,0.34c-0.04,0.11-0.06,0.22-0.06,0.34
	c-0.02,0.72-0.03,1.56-0.03,2.53c-0.01,0.96-0.01,1.96-0.01,3c0,0.57,0,1.19-0.01,1.88c-0.01,0.68-0.02,1.39-0.02,2.12
	c-0.01,0.73-0.01,1.45-0.01,2.18c0,0.73,0.01,1.41,0.02,2.06c0.01,0.64,0.03,1.23,0.06,1.75c0.03,0.52,0.07,0.94,0.13,1.25
	c0.02,0.12,0.03,0.23,0.05,0.34c0.02,0.11,0.02,0.22,0.02,0.34c0,0.19-0.02,0.36-0.06,0.53c-0.04,0.16-0.12,0.31-0.23,0.44
	c-0.11,0.13-0.27,0.23-0.46,0.3s-0.44,0.11-0.74,0.11c-0.33,0-0.6-0.03-0.83-0.09c-0.22-0.06-0.4-0.15-0.53-0.27
	c-0.13-0.12-0.22-0.26-0.28-0.43C657.19,385.43,657.16,385.24,657.16,385.02"/>
<path class="st0" d="M669.08,380.19c0-0.6,0.11-1.16,0.32-1.66c0.21-0.51,0.5-0.96,0.86-1.37c0.36-0.41,0.79-0.76,1.29-1.07
	c0.49-0.3,1.03-0.56,1.59-0.76c-0.41-0.24-0.8-0.51-1.16-0.82c-0.36-0.31-0.67-0.65-0.94-1.04c-0.27-0.39-0.48-0.81-0.63-1.28
	c-0.15-0.47-0.23-0.98-0.23-1.53c0-0.84,0.16-1.58,0.48-2.24c0.32-0.66,0.76-1.21,1.33-1.65c0.57-0.45,1.24-0.78,2.02-1.02
	c0.78-0.23,1.63-0.35,2.55-0.35c0.92,0,1.77,0.11,2.53,0.34s1.43,0.56,1.98,1c0.55,0.44,0.98,1,1.29,1.66
	c0.3,0.66,0.46,1.43,0.46,2.3c0,0.46-0.07,0.93-0.22,1.38s-0.34,0.89-0.59,1.3c-0.25,0.41-0.55,0.79-0.89,1.15
	c-0.34,0.36-0.72,0.67-1.12,0.94c0.67,0.29,1.26,0.59,1.78,0.9c0.52,0.31,0.95,0.65,1.3,1.02c0.35,0.37,0.61,0.79,0.79,1.24
	s0.27,0.98,0.27,1.56c0,1.01-0.21,1.9-0.62,2.69c-0.41,0.78-0.97,1.44-1.67,1.99c-0.7,0.54-1.5,0.95-2.41,1.24
	c-0.91,0.28-1.85,0.43-2.84,0.43c-0.92,0-1.83-0.14-2.74-0.43c-0.9-0.28-1.71-0.7-2.42-1.24c-0.71-0.54-1.28-1.21-1.72-1.99
	C669.3,382.09,669.08,381.19,669.08,380.19 M672.09,380.04c0,0.59,0.12,1.13,0.37,1.6c0.24,0.47,0.57,0.88,0.98,1.21
	c0.41,0.33,0.88,0.58,1.42,0.76c0.54,0.18,1.1,0.27,1.68,0.27c0.62,0,1.21-0.07,1.78-0.21c0.57-0.14,1.08-0.36,1.52-0.65
	c0.44-0.3,0.79-0.67,1.06-1.12c0.27-0.45,0.4-0.99,0.4-1.62c0-0.3-0.08-0.57-0.24-0.83c-0.16-0.25-0.37-0.49-0.63-0.7
	c-0.27-0.22-0.58-0.42-0.93-0.6c-0.35-0.19-0.72-0.36-1.12-0.51c-0.39-0.16-0.8-0.3-1.21-0.43c-0.41-0.13-0.81-0.26-1.19-0.37
	c-0.51,0.1-1,0.24-1.47,0.41c-0.47,0.17-0.89,0.39-1.25,0.65c-0.36,0.26-0.65,0.57-0.86,0.93
	C672.2,379.17,672.09,379.58,672.09,380.04 M676.83,374.27c0.43-0.11,0.84-0.28,1.22-0.51c0.38-0.23,0.71-0.51,0.99-0.82
	c0.28-0.32,0.5-0.67,0.66-1.05s0.24-0.78,0.24-1.19c0-0.5-0.1-0.92-0.29-1.26c-0.2-0.34-0.45-0.62-0.76-0.84
	c-0.31-0.22-0.67-0.37-1.08-0.47c-0.41-0.1-0.82-0.15-1.23-0.15c-0.41,0-0.82,0.04-1.24,0.13c-0.42,0.09-0.79,0.23-1.13,0.43
	c-0.33,0.2-0.61,0.48-0.82,0.83c-0.21,0.35-0.32,0.79-0.32,1.32c0,0.41,0.11,0.8,0.33,1.16c0.22,0.36,0.51,0.69,0.86,0.98
	c0.36,0.3,0.76,0.57,1.21,0.81C675.92,373.87,676.37,374.08,676.83,374.27"/>
<path class="st0" d="M693.01,384.35c0-0.23,0.04-0.43,0.12-0.59c0.08-0.16,0.19-0.3,0.32-0.41c0.13-0.11,0.28-0.18,0.44-0.23
	c0.16-0.05,0.32-0.07,0.49-0.07c0.36,0,0.65,0.05,0.87,0.15c0.22,0.1,0.41,0.2,0.59,0.31c0.11,0.07,0.21,0.12,0.3,0.16
	c0.09,0.04,0.21,0.08,0.35,0.1c0.14,0.02,0.32,0.05,0.55,0.06c0.22,0.01,0.52,0.02,0.89,0.02c0.72,0,1.38-0.15,1.99-0.46
	c0.61-0.31,1.14-0.73,1.6-1.28c0.46-0.54,0.84-1.18,1.14-1.92c0.3-0.74,0.51-1.54,0.63-2.39c-0.36,0.41-0.78,0.74-1.23,1.02
	c-0.46,0.27-0.92,0.48-1.4,0.64c-0.48,0.16-0.95,0.27-1.41,0.33c-0.46,0.06-0.88,0.1-1.25,0.1c-1.01,0-1.96-0.15-2.86-0.46
	c-0.9-0.31-1.68-0.77-2.35-1.39c-0.67-0.62-1.2-1.38-1.59-2.29c-0.39-0.91-0.58-1.97-0.58-3.18c0-0.9,0.15-1.77,0.46-2.63
	c0.31-0.85,0.78-1.62,1.4-2.29c0.63-0.67,1.42-1.21,2.38-1.62c0.96-0.41,2.08-0.62,3.36-0.62c0.99,0,1.88,0.11,2.67,0.34
	c0.79,0.23,1.48,0.54,2.08,0.95c0.6,0.41,1.12,0.89,1.55,1.45c0.43,0.56,0.78,1.17,1.05,1.84c0.27,0.67,0.47,1.38,0.6,2.13
	c0.13,0.75,0.19,1.51,0.19,2.29c0,0.96-0.07,1.92-0.2,2.89c-0.13,0.97-0.34,1.9-0.63,2.81c-0.29,0.9-0.66,1.74-1.1,2.52
	c-0.45,0.78-0.99,1.46-1.62,2.04c-0.63,0.58-1.36,1.04-2.18,1.37c-0.82,0.33-1.75,0.5-2.78,0.5c-0.25,0-0.54-0.01-0.87-0.04
	c-0.33-0.02-0.68-0.07-1.03-0.13c-0.36-0.06-0.71-0.14-1.06-0.25c-0.35-0.11-0.67-0.24-0.95-0.4c-0.28-0.16-0.5-0.35-0.67-0.58
	C693.09,384.9,693.01,384.64,693.01,384.35 M698,377.29c0.47,0,0.98-0.07,1.52-0.22c0.54-0.15,1.05-0.37,1.55-0.65
	c0.49-0.29,0.95-0.65,1.35-1.07c0.41-0.43,0.72-0.92,0.94-1.48v-0.91c0-0.67-0.11-1.31-0.34-1.92c-0.23-0.61-0.56-1.14-1-1.61
	c-0.44-0.46-0.97-0.83-1.6-1.1c-0.63-0.27-1.35-0.41-2.15-0.41c-0.58,0-1.15,0.08-1.73,0.25c-0.58,0.17-1.1,0.43-1.56,0.79
	c-0.46,0.36-0.84,0.81-1.12,1.36c-0.29,0.55-0.43,1.2-0.43,1.97c0,0.68,0.06,1.27,0.19,1.78c0.13,0.51,0.3,0.95,0.52,1.33
	c0.22,0.37,0.48,0.68,0.77,0.93c0.3,0.25,0.61,0.44,0.95,0.58c0.34,0.14,0.69,0.25,1.05,0.31
	C697.27,377.26,697.63,377.29,698,377.29"/>
<path class="st0" d="M713.74,380.59c0-0.41,0.1-0.73,0.3-0.98c0.2-0.25,0.53-0.39,0.99-0.43c0.28,0.01,0.54,0.11,0.78,0.29
	c0.24,0.18,0.41,0.44,0.52,0.76c0.12,0.39,0.29,0.8,0.52,1.24c0.23,0.44,0.54,0.85,0.95,1.23c0.4,0.38,0.91,0.69,1.52,0.93
	c0.61,0.25,1.35,0.37,2.23,0.37c0.58,0,1.15-0.1,1.7-0.29c0.55-0.19,1.04-0.49,1.47-0.88c0.43-0.39,0.77-0.88,1.03-1.47
	c0.26-0.59,0.39-1.28,0.39-2.06c0-0.59-0.1-1.17-0.29-1.75c-0.19-0.57-0.48-1.08-0.87-1.54c-0.39-0.45-0.89-0.82-1.49-1.09
	c-0.6-0.27-1.32-0.41-2.14-0.41c-0.79,0-1.52,0.08-2.2,0.23c-0.68,0.16-1.31,0.41-1.89,0.75c-0.07,0.48-0.25,0.86-0.54,1.16
	c-0.29,0.3-0.7,0.45-1.21,0.45c-0.2,0-0.39-0.04-0.56-0.12c-0.17-0.08-0.31-0.19-0.43-0.32c-0.12-0.13-0.21-0.28-0.27-0.46
	c-0.06-0.17-0.09-0.35-0.09-0.54c0-0.36,0.05-0.67,0.16-0.93c0.11-0.27,0.24-0.52,0.38-0.77c0.03-0.11,0.05-0.3,0.07-0.57
	c0.02-0.27,0.05-0.64,0.09-1.1c0.04-0.47,0.09-1.04,0.16-1.73c0.07-0.69,0.16-1.51,0.28-2.47v0.01c0.02-0.34,0.06-0.67,0.1-0.99
	c0.04-0.32,0.12-0.61,0.23-0.86c0.11-0.25,0.26-0.46,0.46-0.61c0.2-0.16,0.47-0.24,0.81-0.25h9.58c0.25,0,0.46,0.04,0.64,0.11
	c0.18,0.08,0.33,0.18,0.44,0.3c0.12,0.12,0.21,0.26,0.26,0.41c0.06,0.15,0.08,0.3,0.08,0.46c0,0.18-0.03,0.35-0.1,0.51
	c-0.07,0.16-0.17,0.31-0.3,0.44c-0.13,0.13-0.29,0.23-0.48,0.3c-0.19,0.07-0.41,0.1-0.67,0.1c-0.39-0.02-0.9-0.03-1.53-0.04
	c-0.63-0.01-1.32-0.01-2.06-0.02c-0.74,0-1.51-0.01-2.3-0.01h-2.23l-0.75,4.98c0.29-0.17,0.6-0.32,0.95-0.44
	c0.35-0.13,0.7-0.23,1.06-0.31c0.36-0.08,0.72-0.14,1.07-0.18c0.35-0.04,0.68-0.06,0.97-0.06c1.2,0,2.27,0.18,3.21,0.55
	c0.93,0.36,1.73,0.87,2.38,1.51c0.65,0.64,1.14,1.4,1.48,2.28c0.34,0.88,0.51,1.83,0.51,2.85c0,0.84-0.11,1.6-0.32,2.29
	s-0.5,1.31-0.87,1.85c-0.37,0.55-0.8,1.02-1.31,1.43c-0.5,0.41-1.05,0.75-1.63,1.02c-0.58,0.27-1.2,0.47-1.84,0.6
	c-0.64,0.14-1.29,0.2-1.93,0.2c-0.58,0-1.16-0.07-1.75-0.2c-0.59-0.13-1.16-0.32-1.71-0.56c-0.55-0.24-1.07-0.54-1.55-0.89
	c-0.49-0.35-0.91-0.75-1.27-1.19c-0.36-0.44-0.64-0.92-0.85-1.44C713.84,381.74,713.74,381.18,713.74,380.59"/>
<path class="st0" d="M449.31,228.9c-2.12-4.61-7.98-4.9-11.95-2.66c-4.78,2.7-9.93,7.75-14.29,22.03
	c-8.26,2.42-17.28,2.95-25.33-0.09c-5.45-2.06-12.01-4.78-15.97-9.56c4.13-4.97,8.35-13.74,7.26-20.29
	c-0.96-5.76-7.06-10.51-13.42-7.76c-6.15,2.65-6.53,10.75-5.71,16.4c0.52,3.55,1.98,7.36,3.58,10.27
	c-10.98,8.62-22.52,13.18-39.78,10.34c-1-3.82-2.48-7.46-4.67-10.46c-3.48-4.77-10.79-9.04-16.56-5.42
	c-6.27,3.94-3,12.56,1.39,16.49c3.61,3.23,8.58,5.05,13.61,6.06c0.42,2.77,0.63,5.46,0.76,7.68c0.28,4.8,7.79,4.83,7.5,0
	c-0.13-2.13-0.31-4.38-0.6-6.67c14.23,1.1,31.28-3.61,42.39-12.53c1.09,1.21,2.28,2.37,3.56,3.49
	c11.42,9.98,25.01,13.33,39.66,10.31c-0.37,1.29-1.82,8.7-3.82,11.2c-0.67,0.84-1.83,0.88-2.18,0.89
	c-5.53,0.04-16.24-3.95-24.51-6.31c-19.66-5.6-36.96-3.32-54.59,7.92c-4.06,2.59-0.3,9.08,3.79,6.48
	c10.55-6.73,22.35-9.86,34.84-9.76c13.19,0.11,25.76,3.59,38.55,6.31c8.81,1.87,12.36-5.21,14.48-12.71
	c0.6-2.11,1.29-4.26,1.89-6.33c5.06-1.76,9.82-4.23,13.52-7.95C446.43,242.5,451.9,234.51,449.31,228.9 M320.29,243.62
	c-4.9-3.52-4.24-6.07-2.43-6.72c2.01-0.73,4.91,1.17,7.55,8.97C323.58,245.32,321.77,244.68,320.29,243.62 M381.26,220.65
	c0.28,2.29-0.4,5.37-0.84,6.61c-0.44,1.25-1.5,3.79-2.74,5.2c-1.2-2.05-2.13-5.61-2.43-7.73c-0.5-3.51,0.81-7.21,2.9-7.44
	C379.89,217.11,381.06,218.95,381.26,220.65 M431.98,244.83c1.01-3.36,2.49-7.48,4.58-10.08c1.02-1.27,3.17-3.19,4.98-2.5
	C445.23,233.64,436.2,242.46,431.98,244.83"/>
<path class="st0" d="M356.35,229.41c-0.09-3.02-0.38-5.81-1.7-8.71c-0.99-2.18-2.55-4.07-4.49-5.11c-2.49-1.33-5.81-1.19-8.15,1.26
	c-3.71,3.87-3.56,11.44,0.34,16.87c1.9,2.65,8.68,6.98,10.55,6.5C354.27,239.87,356.5,234.47,356.35,229.41 M350.69,233.96
	c0,0-3.74-2.45-4.81-4.76c-0.95-2.04-1.15-4.71,0.1-6.01c0.79-0.83,1.91-0.87,2.75-0.43c0.65,0.35,1.26,1.23,1.74,2.3
	C352.24,228.93,350.69,233.96,350.69,233.96"/>
<path class="st0" d="M403.66,240.35c1.65,0.66,7.66-3.94,9.91-6.27c6.16-6.38,5.72-13.01,3.23-16.21c-2.05-2.63-5.91-3.04-8.58-1.58
	c-1.87,1.02-6.41,4.13-6.93,11.69C400.93,233.09,402.22,239.78,403.66,240.35 M407.73,225.33c0.4-0.78,1.01-1.62,1.92-2.28
	c0.81-0.57,1.8-0.68,2.54,0.28c1.16,1.53,0.66,4.07-0.85,6.45c-1.15,1.81-4.59,4.35-4.59,4.35S406.07,228.59,407.73,225.33"/>
</svg>
